<svg width="49" height="48" viewBox="0 0 49 48" fill="none" xmlns="http://www.w3.org/2000/svg">
<rect x="0.800049" width="48" height="48" rx="12" fill="#FF7676"/>
<g clip-path="url(#clip0_363_5067)">
<path d="M36.8 48H12.8C6.20005 48 0.800049 42.6 0.800049 36V12C0.800049 5.4 6.20005 0 12.8 0H36.8C43.4001 0 48.8 5.4 48.8 12V36C48.8 42.6 43.4001 48 36.8 48Z" fill="#9B97E2"/>
<path d="M35.5283 15C35.8666 15 36.1741 15.1416 36.3979 15.368C36.6216 15.5943 36.7614 15.9058 36.7614 16.2507C36.7614 16.8902 36.2794 17.4223 35.663 17.4913L35.5459 17.4987L35.5462 24.4727C34.7727 23.9448 33.8388 23.6362 32.8408 23.6362C30.19 23.6362 28.049 25.7585 28.049 28.3862C28.049 29.3918 28.3626 30.3234 28.8981 31.0903L27.5216 31.0892L28.8259 32.4095C29.1844 32.7722 29.1844 33.3642 28.8259 33.7271C28.495 34.062 27.9734 34.0877 27.613 33.8043L27.5266 33.7271L25.0019 31.1691L22.4772 33.7271C22.2968 33.9099 22.0628 34 21.8264 34C21.59 34 21.3534 33.9099 21.1756 33.7271C20.8447 33.3923 20.8192 32.8623 21.0992 32.4972L21.1756 32.4098L22.4775 31.0895H16.2917C15.321 31.0895 14.5286 30.3323 14.4585 29.3679L14.4535 29.229V17.4992C14.1178 17.4942 13.8153 17.3527 13.5942 17.1263C13.373 16.8999 13.2383 16.591 13.2383 16.2512C13.2383 15.6046 13.7291 15.0696 14.3529 15.0066L14.4713 15.0003H35.5283V15ZM32.841 24.4997C34.982 24.4997 36.7616 26.236 36.7616 28.3859C36.7616 30.5359 35.0099 32.2724 32.841 32.2724C30.6722 32.2724 28.9204 30.5359 28.9204 28.3859C28.9204 26.236 30.6722 24.4997 32.841 24.4997ZM32.4584 26.0543C32.2325 26.0543 32.0568 26.2284 32.0568 26.4524V28.7654C32.0568 28.9892 32.2325 29.1633 32.4584 29.1633H34.7919C35.0177 29.1633 35.1934 28.9892 35.1934 28.7654C35.1934 28.5417 35.0177 28.3673 34.7919 28.3673H32.8599V26.4522C32.8597 26.2284 32.6842 26.0543 32.4584 26.0543ZM23.6701 26.5315H18.425C18.1708 26.5315 17.9421 26.6371 17.7742 26.8067C17.6064 26.9766 17.5021 27.2109 17.5021 27.4657C17.5021 27.9437 17.8609 28.3408 18.3203 28.3917L18.4201 28.3972H23.6651C23.9193 28.3972 24.1481 28.2916 24.3159 28.122C24.4837 27.9521 24.5854 27.7204 24.588 27.4633C24.588 26.9509 24.1762 26.5315 23.6701 26.5315ZM23.6701 23.621H18.425C18.1708 23.621 17.9421 23.7265 17.7742 23.8962C17.6064 24.0661 17.5021 24.3001 17.5021 24.5549C17.5021 25.0329 17.8609 25.4303 18.3203 25.4809L18.4201 25.4865H23.6651C23.9193 25.4865 24.1481 25.3809 24.3159 25.2112C24.4837 25.0413 24.5854 24.807 24.588 24.5525C24.588 24.0404 24.1762 23.621 23.6701 23.621ZM30.6086 18.0802H28.6864C27.7205 18.0802 26.9236 18.8423 26.8532 19.8025L26.8482 19.9409V21.8889C26.8482 22.8641 27.6012 23.673 28.5496 23.7444L28.6864 23.7497H30.6086C31.5746 23.7497 32.3714 22.9875 32.4418 22.0276L32.4468 21.8892V19.9412C32.4468 18.9193 31.6206 18.0802 30.6086 18.0802Z" fill="white"/>
</g>
<defs>
<clipPath id="clip0_363_5067">
<rect width="48" height="48" fill="white" transform="translate(0.800049)"/>
</clipPath>
</defs>
</svg>
